<svg id="Layer_1" data-name="Layer 1" xmlns="http://www.w3.org/2000/svg" viewBox="0 0 100 100.02"><path d="M100,4.88V95.14a7.06,7.06,0,0,1-2.35,3.55c-.79.52-1.69.89-2.53,1.33H4.88a3.23,3.23,0,0,0-.41-.22A6.11,6.11,0,0,1,0,93.56Q0,50,0,6.43A6.91,6.91,0,0,1,.16,4.79,6.08,6.08,0,0,1,6.53,0H94.12a6,6,0,0,1,5,3C99.49,3.63,99.72,4.27,100,4.88ZM17.89,76.48H19c3.22,0,6.44,0,9.67,0a1.17,1.17,0,0,0,1.39-1c1-3.73,2.07-7.44,3.07-11.17a1,1,0,0,1,1.12-.86q6.45,0,12.89,0a.93.93,0,0,1,1.08.8c1.1,3.77,2.26,7.52,3.36,11.29a1.1,1.1,0,0,0,1.27,1c3.45,0,6.9,0,10.35,0h1c-.07-.35-.09-.54-.15-.73Q56.39,51.06,48.74,26.37c-.2-.65-.52-.77-1.11-.77-3.81,0-7.62,0-11.43,0H33.43Zm52.49-36.8V76.4H81.67V39.68ZM76.45,35a5.56,5.56,0,0,0,4.84-2.77A5.82,5.82,0,0,0,80.24,25a6.84,6.84,0,0,0-8-.37,5.86,5.86,0,0,0-1.94,6.64C71.05,33.55,73.25,35,76.45,35Z"/><path d="M40.51,34.36,46.25,54.8H35.16Z"/></svg>