<?xml version="1.0" encoding="UTF-8"?><svg id="Layer_1" xmlns="http://www.w3.org/2000/svg" viewBox="0 0 100 100.02"><path d="M94.73,100.02H5.27c-.11-.06-.22-.14-.34-.18C1.63,98.8,0,96.63,0,93.22,0,64.4,0,35.59,0,6.78c0-.58,.02-1.18,.15-1.74C.88,1.88,3.37,0,6.79,0,35.53,0,64.27,0,93.01,0c.26,0,.52,0,.78,0,1.52,.05,2.83,.59,4,1.56,1.18,.98,1.71,2.32,2.2,3.7V94.75c-.45,.92-.8,1.9-1.36,2.75-.91,1.39-2.39,2.02-3.91,2.52Zm-29.53-56.72c-1.08-.81-1.97-1.72-3.05-2.25-5.76-2.82-14.31-1.4-18.5,6.23-2.5,4.56-2.91,9.47-2,14.49,.8,4.45,2.85,8.2,6.73,10.77,5.6,3.71,13.94,2.4,17.31-3.14,.08-.14,.24-.23,.44-.41l.51,4.81h8.98V25.42h-10.4v17.88ZM24.26,27.88v45.93h10.28V27.88h-10.28Z"/><path d="M65.28,57.53c-.12,1.05-.14,2.7-.53,4.26-.61,2.48-2.29,4.07-4.84,4.5-2.5,.42-4.64-.39-6.22-2.4-2.83-3.59-2.57-10.83,.52-14.21,1.82-1.99,4.13-2.49,6.68-1.71,2.3,.71,3.99,2.95,4.16,5.38,.09,1.2,.13,2.4,.23,4.18Z"/></svg>