<?xml version="1.0" encoding="UTF-8"?><svg id="Layer_1" xmlns="http://www.w3.org/2000/svg" viewBox="0 0 100 99.83"><path d="M100,86.16v1.56c-.38,.56-.69,1.19-1.15,1.66-3.08,3.12-6.18,6.22-9.29,9.31-1.53,1.53-3.15,1.53-4.68,.01-2.1-2.08-4.19-4.17-6.26-6.28-.41-.41-.71-.92-1.09-1.42-2.49,2.5-4.76,4.72-6.98,7.01-1.02,1.05-2.06,1.95-3.63,1.54-1.64-.43-2.05-1.79-2.39-3.24-.43-1.84-.94-3.67-1.42-5.54-.36,.11-.61,.17-.85,.26-7.38,2.52-14.93,3.21-22.64,1.96-11.62-1.9-21.38-7.28-28.7-16.47C-.45,62.26-3.07,46.27,3.66,29.34,9.9,13.65,21.86,4.25,38.41,.79c1.67-.35,3.38-.53,5.07-.79h7.02c1.05,.14,2.11,.27,3.15,.44,12.26,1.92,22.41,7.61,30.05,17.39,8.84,11.32,11.81,24.16,9.11,38.27-.44,2.28-1.14,4.51-1.73,6.81,.28,.08,.62,.18,.96,.27,1.82,.47,3.64,.91,5.45,1.4,1.62,.44,2.54,1.65,2.27,3.24-.12,.71-.56,1.46-1.07,1.98-2.38,2.47-4.83,4.87-7.34,7.38,1.87,1.86,3.72,3.64,5.5,5.47,1.1,1.13,2.1,2.34,3.15,3.51Zm-8.82-17.12c-9.89-2.53-19.61-5.01-29.47-7.53,2.54,9.92,5.01,19.61,7.53,29.47,2.06-2.07,3.95-3.99,5.87-5.88,1.41-1.39,3.06-1.38,4.47,0,1.07,1.05,2.12,2.11,3.17,3.17,1.46,1.47,2.93,2.94,4.27,4.29l5.77-5.69c-2.37-2.37-4.79-4.77-7.19-7.18-1.79-1.79-1.79-3.3,.01-5.1,1.81-1.81,3.62-3.62,5.57-5.56ZM22.05,43.81l1.7-14.58c-4.37,0-8.82,0-13.26,.03-.25,0-.62,.33-.71,.58-.88,2.43-1.85,4.84-2.52,7.33-.58,2.13-.8,4.36-1.2,6.63h15.99Zm65.69,0c0-.23,0-.36,0-.48-.38-4.76-1.59-9.31-3.61-13.64-.11-.24-.59-.44-.91-.44-2.79-.03-5.58-.02-8.37-.02-1.59,0-3.17,0-4.62,0,.57,4.88,1.13,9.7,1.7,14.58h15.81Zm-65.68,5.95H6.27c0,.41-.03,.77,0,1.12,.48,4.38,1.56,8.59,3.37,12.62,.27,.61,.57,.86,1.28,.85,4.02-.04,8.05-.02,12.08-.02,.3,0,.61-.03,.75-.04l-1.69-14.53Zm6.13-5.97h15.81v-14.56c-4.54,0-9.02,0-13.49,.02-.22,0-.59,.3-.63,.52-.99,4.6-1.59,9.25-1.69,14.02Zm0,5.96c.15,4.99,.72,9.79,1.8,14.5h14.04v-14.5h-15.85Zm37.62-5.93c-.11-4.79-.71-9.4-1.65-13.98-.13-.65-.53-.6-1-.6-4.15,0-8.31,0-12.46,0-.25,0-.49,.04-.7,.07v14.52h15.81Zm19.4,17.62c1.43-3.84,2.35-7.67,2.56-11.68h-15.98c-.21,2.72-.42,5.39-.63,8.09,4.69,1.2,9.32,2.38,14.05,3.59Zm-35.22-11.7v14.51h6.36c-.48-1.9-.93-3.72-1.39-5.54-.75-2.96,1.01-4.73,3.96-3.99,2.11,.53,4.23,1.06,6.48,1.63,.16-2.28,.31-4.42,.46-6.62h-15.86Zm-.03-26.39h12.33c-.02-.14-.02-.24-.05-.33-.2-.58-.39-1.17-.62-1.74-1.7-4.35-3.77-8.48-7.13-11.83-1.29-1.29-2.73-2.36-4.54-3V23.35Zm-5.92-16.83c-5.12,1.53-10.27,9.64-12.29,16.83h12.29V6.52Zm-.02,80.59v-16.88h-12.29c.85,3.97,4.55,10.63,7.59,13.69,1.33,1.34,2.81,2.49,4.7,3.18Zm5.94-16.9v17.01c.85-.47,1.64-.83,2.35-1.31,3.19-2.19,5.31-5.28,7.08-8.64,.12-.23,.14-.58,.07-.84-.51-2.07-1.05-4.13-1.59-6.21h-7.91ZM13.43,23.4h1.13c3.28,0,6.56-.03,9.84,.02,.77,.01,1.12-.19,1.35-.97,1.43-4.71,3.44-9.16,6.24-13.22,.08-.11,.12-.26,.28-.63-7.82,3.14-13.97,7.97-18.85,14.8ZM61.77,8.63c.04,.27,.03,.35,.06,.4,2.93,4.21,4.98,8.84,6.48,13.73,.18,.57,.47,.65,.98,.65,3.41-.02,6.81,0,10.22-.01,.28,0,.55-.03,.99-.05-4.85-6.77-10.99-11.61-18.73-14.71ZM13.43,70.17c4.91,6.83,11.05,11.68,18.75,14.75-.01-.23,0-.27-.02-.29-.31-.49-.62-.98-.94-1.47-2.41-3.76-4.16-7.82-5.5-12.07-.13-.42-.12-.95-.86-.94-3.73,.04-7.46,.02-11.44,.02Z"/></svg>