<?xml version="1.0" encoding="UTF-8"?><svg id="Layer_1" xmlns="http://www.w3.org/2000/svg" viewBox="0 0 100 97.59"><path d="M100,15.79V81.81c-.17,.76-.31,1.52-.5,2.27-2.04,8.09-9.04,13.5-17.52,13.51-20.96,.01-41.91,0-62.87,0-1.1,0-2.21-.05-3.31-.15C7.15,96.68,.03,89,.02,80.33-.01,59.31,0,38.29,.03,17.26c0-1.25,.19-2.54,.49-3.76C2.51,5.52,9.48,.06,17.74,.02c7.74-.04,15.49,0,23.23,0,13.7,0,27.4-.01,41.1,0,7.88,.01,14.64,4.86,17.04,12.2,.38,1.16,.59,2.38,.88,3.58ZM34.63,60.51v-1.28c0-11,0-22,.02-33.01,0-.88-.22-1.19-1.13-1.16-2.21,.06-4.43,.02-6.64,.02q-1.46,0-1.46,1.45c0,13.25,0,26.5,0,39.74,0,.55,0,1.11,0,1.66,0,.66,.22,1.01,.97,1.01,8.59-.02,17.19-.01,25.78,0,.64,0,.92-.21,1.03-.87,.34-2.18,.72-4.36,1.11-6.53,.15-.84-.16-1.06-.98-1.05-3.52,.04-7.03,.02-10.55,.02-2.67,0-5.33,0-8.15,0Zm24.16-24.83c0,.42,0,.7,0,.99,.11,3.9,.29,7.8,.33,11.7,.06,6.35,.01,12.69,.02,19.04q0,1.52,1.57,1.52c2.15,0,4.3-.05,6.44,.02,.98,.03,1.28-.24,1.27-1.25-.04-6.44,0-12.89-.05-19.33,0-1.06,.32-1.73,1.2-2.2,.43-.23,.85-.49,1.29-.67,2.34-.98,4.78-1.49,7.32-1.36,.78,.04,1.03-.22,1.01-.99-.04-2.34-.01-4.69-.02-7.03,0-1.1-.13-1.21-1.25-1.15-2.71,.14-5.15,1.03-7.3,2.66-.89,.68-1.72,1.46-2.58,2.2-.15-.98-.25-1.95-.47-2.89-.14-.58-.31-1.26-1.13-1.26-2.5,0-5,0-7.64,0Z"/></svg>