<svg id="Layer_1" data-name="Layer 1" xmlns="http://www.w3.org/2000/svg" viewBox="0 0 100 100"><defs><style>.cls-1{fill:none;}.cls-2{fill:#010101;}</style></defs><path class="cls-1" d="M55.55,13.63c-1.2.21-2.37.46-3.5.75a30,30,0,0,1,8.56,6l2.69-.29,3,.43,1.86,4.28s-.4,5.46-2.18,2.59l-.22-.35a31.21,31.21,0,0,1,2.31,4.58c.08.2.17.41.25.63.52,1.19,1,2.29,1.3,3.23l.54-.11,3.18,4-1.45,6.12L68.12,46.9l-1.44-2.44L45.92,27.88l-9.34,2.81a14.82,14.82,0,0,1,6.28-4.14,15.57,15.57,0,0,0-8.23,6.61Q30.9,39,31.14,47.35A40.46,40.46,0,0,0,34.9,63.12a27.26,27.26,0,0,0,3.93,6.11,19.37,19.37,0,0,0,4.64,4A13.24,13.24,0,0,0,48.54,75a13.84,13.84,0,0,0,5.21-.24,22.28,22.28,0,0,0,3.53-1,19.64,19.64,0,0,0,2.33-1.28c8.42-5.75,8.28-16.74,8.28-16.74l4.65-1L75,54.25l.77,5-2.42,5.3L71,68.64l-3.06,4h-.07a25.32,25.32,0,0,0,3.86-7.9l0,.07A30.32,30.32,0,0,1,67.4,73.3l-.23.32a49.42,49.42,0,0,0,3.94-4.79,69.4,69.4,0,0,0,5-8.07,45.12,45.12,0,0,0,5-18.9q.54-10.33-6.52-23.14Q64.28,12.18,55.55,13.63Zm1.79,40.55c-1.43,5-6.06,7.73-10.34,6s-6.59-7.12-5.16-12.14,6.07-7.72,10.35-6S58.78,49.16,57.34,54.18Z"/><path class="cls-1" d="M49.26,84.73q-6.63,1.08-13.91-3.15Q27.54,77.34,23.81,67A42.57,42.57,0,0,1,21,47.62a42.54,42.54,0,0,1,1.41-7.17q-1.83,3.38-3.31,6.91a64,64,0,0,0-4,13.34,42.7,42.7,0,0,0-.53,12.41A23,23,0,0,0,18,83.33a33.49,33.49,0,0,0,15.3,4.22,41.11,41.11,0,0,0,17-2.29,37.94,37.94,0,0,0,4.84-2.15A25,25,0,0,1,49.26,84.73Z"/><path class="cls-2" d="M75.52,13Q63.75.1,46.81,0q-16.71-.12-29,15.09A100.62,100.62,0,0,0,0,50.87Q3.89,71.6,16.86,86.07,29.58,100.71,45.74,100t29.92-11.7Q89.3,77.46,100,51.13,86.91,25.76,75.52,13ZM33.34,87.55A33.49,33.49,0,0,1,18,83.33a23,23,0,0,1-3.46-10.22,42.7,42.7,0,0,1,.53-12.41,64,64,0,0,1,4-13.34q1.49-3.54,3.31-6.91A42.54,42.54,0,0,0,21,47.62,42.57,42.57,0,0,0,23.81,67q3.74,10.29,11.54,14.54,7.29,4.23,13.91,3.15a25,25,0,0,0,5.91-1.62,37.94,37.94,0,0,1-4.84,2.15A41.11,41.11,0,0,1,33.34,87.55ZM81.09,41.86a45.12,45.12,0,0,1-5,18.9,69.4,69.4,0,0,1-5,8.07,49.42,49.42,0,0,1-3.94,4.79l.23-.32a30.32,30.32,0,0,0,4.29-8.47l0-.07a24.27,24.27,0,0,0,.81-10l-4.65,1s.14,11-8.28,16.74a19.64,19.64,0,0,1-2.33,1.28,22.28,22.28,0,0,1-3.53,1,13.84,13.84,0,0,1-5.21.24,13.24,13.24,0,0,1-5.07-1.84,19.37,19.37,0,0,1-4.64-4,27.26,27.26,0,0,1-3.93-6.11,40.46,40.46,0,0,1-3.76-15.77Q30.9,39,34.63,33.16a15.57,15.57,0,0,1,8.23-6.61l1-.32h0a21,21,0,0,1,4.63-.93c3.6-.05,12.31,1,16.35,11.24l4.81-1c-.34-.94-.78-2-1.3-3.23-.08-.22-.17-.43-.25-.63a31.21,31.21,0,0,0-2.31-4.58c-.29-.44-.61-.89-1-1.36A33.93,33.93,0,0,0,62,21.92c-.44-.51-.9-1-1.39-1.51a30,30,0,0,0-8.56-6c1.13-.29,2.3-.54,3.5-.75q8.73-1.45,19,5.09Q81.64,31.53,81.09,41.86Z"/><path class="cls-2" d="M52.19,42.05c-4.28-1.68-8.91,1-10.35,6S42.72,58.54,47,60.23s8.91-1,10.34-6S56.47,43.73,52.19,42.05Z"/></svg>