<svg id="Layer_1" data-name="Layer 1" xmlns="http://www.w3.org/2000/svg" viewBox="0 0 100 99.99"><path d="M100,4.88v90.2s-.12.07-.14.12C98.45,98.79,96.77,100,93,100c-28.69,0-57.38,0-86.07,0A6.58,6.58,0,0,1,0,93.15c.1-16,0-31.94,0-47.92Q0,25.87,0,6.49A6.08,6.08,0,0,1,2.58,1.2,15,15,0,0,1,5.11,0H94.92a6.8,6.8,0,0,1,3.82,2.44A25.51,25.51,0,0,1,100,4.88ZM16.52,20.16V74.54H28.78V54.94c.31,0,.51,0,.7,0a33.45,33.45,0,0,0,15.33-1.83A16.64,16.64,0,0,0,53.54,46a18.87,18.87,0,0,0,2.35-11.17A15.4,15.4,0,0,0,51,24.32c-3.78-3.5-8.5-4.68-13.43-5-4-.21-7.93-.14-11.89,0C22.59,19.47,19.56,19.88,16.52,20.16Zm40.1,52.47c.62.28,1.16.56,1.73.79a30.88,30.88,0,0,0,13.39,1.9A20.6,20.6,0,0,0,81,72.71a11.81,11.81,0,0,0,3.62-17A15.93,15.93,0,0,0,78,51c-2.21-.94-4.46-1.79-6.63-2.79a2.89,2.89,0,0,1,.74-5.54,19.59,19.59,0,0,1,5.3.06A46.77,46.77,0,0,1,83,44.38c.69-2.72,1.41-5.5,2.12-8.31-.23-.12-.37-.2-.51-.26a27,27,0,0,0-15.47-1.56,14.26,14.26,0,0,0-9.5,5.94c-2.46,3.66-3,9.11.41,13.15A17.38,17.38,0,0,0,66.8,58c2.09.88,4.23,1.66,6.28,2.61A2.93,2.93,0,0,1,74.79,64a3,3,0,0,1-2.47,2.45,11.17,11.17,0,0,1-5.88,0c-2.56-.68-5.06-1.54-7.66-2.34.08-.13,0-.06,0,0C58.06,66.89,57.36,69.69,56.62,72.63Z"/><path d="M28.77,45.27V44.2c0-4.71,0-9.42,0-14.13,0-.85.22-1.18,1.08-1.28,3-.35,6-.57,9,.53,3.64,1.39,5,4.27,4.86,7.81-.22,4.29-2.7,7-6.92,8A21.42,21.42,0,0,1,28.77,45.27Z"/></svg>