<?xml version="1.0" encoding="UTF-8"?><svg id="Layer_1" xmlns="http://www.w3.org/2000/svg" viewBox="0 0 100 93.73"><path d="M0,82.01V11.72c.62-1.25,1.46-2.11,2.95-2.38,8.11-1.48,16.21-3.03,24.31-4.56C35.65,3.2,44.03,1.62,52.43,.06c2.11-.39,3.79,1.06,3.8,3.22,.01,2.73,0,5.47,0,8.2,0,.31,.03,.63,.05,1.02h1.22c12.92,0,25.84,0,38.76,0,2.6,0,3.72,1.13,3.72,3.75,0,20.4-.02,40.81,.04,61.21,0,2.29-1.4,3.81-3.84,3.8-12.92-.08-25.84-.04-38.76-.04h-1.18c0,3.16,0,6.19,0,9.21,0,2.2-1.73,3.63-3.9,3.23-5.93-1.11-11.87-2.23-17.8-3.34-10.3-1.93-20.6-3.89-30.91-5.78-1.65-.3-2.95-.91-3.61-2.54ZM56.3,42.64v19.85c1.24,0,2.41,0,3.57,0,8.07,0,16.14,0,24.21,0,1.41,0,2.48,.54,3.09,1.8,1.03,2.12-.52,4.44-2.97,4.44-8.92,.01-17.83,0-26.75,0h-1.17v6.18h37.39V18.81H56.29v19.84c1.42-7.12,7.12-13.1,12.46-13.21v18.3h18.31c-.28,5.85-7.09,11.96-13.85,12.47-7.89,.6-15.34-4.55-16.9-13.57Zm-31.3,13.6c2.05,0,3.97,0,5.88,0,6.75-.04,11.82-4.47,12.75-11.15,.89-6.4-4.12-13.02-10.56-13.62-3.45-.32-6.95-.19-10.42-.22-2.75-.03-3.9,1.15-3.9,3.91,0,9.89,0,19.77,0,29.66,0,.36-.01,.72,.03,1.07,.28,2.12,2.3,3.36,4.23,2.61,1.24-.48,1.98-1.63,1.99-3.18,.01-2.99,0-5.97,0-9.08Z"/><path d="M75.05,25.42c5.44,.62,11.35,6.51,12.02,12.07h-12.02v-12.07Z"/><path d="M25.04,49.97v-12.47c2.07,0,4.13,0,6.2,0,1.52,0,2.85,.52,4.02,1.48,1.95,1.6,2.7,4.23,1.9,6.69-.79,2.43-2.99,4.2-5.48,4.28-2.17,.07-4.35,.01-6.64,.01Z"/></svg>