<?xml version="1.0" encoding="UTF-8"?><svg id="Layer_1" xmlns="http://www.w3.org/2000/svg" viewBox="0 0 100 97.6"><path d="M0,82V15.59c.17-.72,.33-1.44,.52-2.15C2.6,5.38,9.56,.01,18,0c21.16-.01,42.31,0,63.47,0,.88,0,1.76,.05,2.63,.14,9.02,.89,15.89,8.44,15.9,17.5,.01,20.77,0,41.53,0,62.3,0,3.65-1.03,7-3.14,9.97-3.61,5.08-8.6,7.63-14.8,7.66-11.46,.05-22.91,.02-34.37,.02-9.93,0-19.85,.02-29.78,0-8.36-.02-15.33-5.43-17.39-13.43-.18-.71-.35-1.43-.52-2.15ZM23.87,25.06c-.04,.41-.07,.6-.07,.79,0,14.06,0,28.11-.02,42.17,0,.76,.29,.93,.98,.92,2.28-.03,4.56-.05,6.83,0,.95,.03,1.23-.3,1.22-1.23-.04-3.87-.02-7.74-.02-11.62,0-.34,0-.69,0-1.08,.55,0,.97-.01,1.39,0,3.49,.11,6.95,0,10.35-.94,10.35-2.9,14.35-15.42,7.47-23.6-3.17-3.77-7.49-5.33-12.27-5.5-4.29-.15-8.58,.04-12.88,.07-.97,0-1.94,0-2.99,0Zm46,14.88c-.18-1.16-.35-2.17-.5-3.19-.13-.85-.59-1.23-1.46-1.22-2.11,.02-4.23,.03-6.34,0-.7-.01-.89,.25-.86,.92,.1,2.05,.2,4.09,.21,6.14,.03,8.36,.02,16.72,.03,25.08,0,1.23,.04,1.27,1.25,1.27,2.28,0,4.55,0,6.83,0q1.3,0,1.3-1.27c0-6.18,.11-12.36-.06-18.54-.05-2.07,.83-3.03,2.52-3.68,.3-.12,.59-.29,.91-.35,2.13-.37,4.26-.77,6.41-1.05,.7-.09,1.05-.2,1.03-1-.04-2.44-.03-4.88,0-7.32,0-.62-.22-.93-.86-.84-1.18,.17-2.4,.24-3.54,.57-2.69,.76-4.88,2.37-6.86,4.49Z"/><path d="M32.88,47.06v-14.04c.75,0,1.51-.05,2.26,0,2.09,.15,4.24,.1,6.27,.58,3.16,.74,4.79,3.12,4.78,6.27-.02,3.48-1.57,5.63-4.79,6.6-2.34,.71-6.55,1.01-8.52,.58Z"/></svg>